<svg width="259" height="42" viewBox="0 0 259 42" fill="none" xmlns="http://www.w3.org/2000/svg">
<path d="M6 6H0C0 17.5969 9.40313 27 21 27V40.5C21 41.325 21.675 42 22.5 42H25.5C26.325 42 27 41.325 27 40.5V27C27 15.4031 17.5969 6 6 6ZM42 0C34.1063 0 27.2437 4.35938 23.6531 10.8C26.25 13.6312 28.1719 17.0719 29.1844 20.8875C39.75 19.7906 48 10.8656 48 0H42Z" fill="#90907C"/>
<path d="M52.822 42V19.764H59.826C61.05 19.764 62.1834 19.8773 63.226 20.104C64.2914 20.3306 65.2094 20.716 65.98 21.26C66.7507 21.804 67.3514 22.518 67.782 23.402C68.2127 24.2633 68.428 25.34 68.428 26.632C68.428 27.856 68.2127 28.9213 67.782 29.828C67.3514 30.7346 66.7507 31.494 65.98 32.106C65.232 32.6953 64.3367 33.1373 63.294 33.432C62.274 33.704 61.1634 33.84 59.962 33.84H56.766V42H52.822ZM56.766 30.678H59.656C62.92 30.678 64.552 29.3293 64.552 26.632C64.552 25.2266 64.1214 24.2633 63.26 23.742C62.4214 23.198 61.1747 22.926 59.52 22.926H56.766V30.678Z" fill="#90907C"/>
<path d="M72.6111 42V19.764H76.5551V38.668H85.8031V42H72.6111Z" fill="#90907C"/>
<path d="M94.2335 30.168L93.4515 32.888H99.1295L98.3475 30.168C97.9848 28.9893 97.6335 27.7766 97.2935 26.53C96.9762 25.2833 96.6588 24.048 96.3415 22.824H96.2055C95.8882 24.0706 95.5708 25.3173 95.2535 26.564C94.9362 27.788 94.5962 28.9893 94.2335 30.168ZM86.7875 42L94.0295 19.764H98.6535L105.895 42H101.747L100.013 35.982H92.5335L90.7995 42H86.7875Z" fill="#90907C"/>
<path d="M108.636 42V19.764H112.682L119.618 32.276L121.896 37.002H122.032C121.942 35.846 121.828 34.6106 121.692 33.296C121.579 31.9586 121.522 30.6666 121.522 29.42V19.764H125.296V42H121.25L114.314 29.488L112.036 24.762H111.9C111.991 25.9406 112.093 27.176 112.206 28.468C112.342 29.76 112.41 31.0293 112.41 32.276V42H108.636Z" fill="#90907C"/>
<path d="M135.437 42V23.096H129.011V19.764H145.807V23.096H139.381V42H135.437Z" fill="#90907C"/>
<path d="M149.51 42V19.764H162.906V23.096H153.454V28.774H161.444V32.106H153.454V38.668H163.246V42H149.51Z" fill="#90907C"/>
<path d="M172.292 42V23.096H165.866V19.764H182.662V23.096H176.236V42H172.292Z" fill="#90907C"/>
<path d="M189.56 30.168L188.778 32.888H194.456L193.674 30.168C193.311 28.9893 192.96 27.7766 192.62 26.53C192.302 25.2833 191.985 24.048 191.668 22.824H191.532C191.214 24.0706 190.897 25.3173 190.58 26.564C190.262 27.788 189.922 28.9893 189.56 30.168ZM182.114 42L189.356 19.764H193.98L201.222 42H197.074L195.34 35.982H187.86L186.126 42H182.114Z" fill="#90907C"/>
<path d="M203.963 42V19.764H208.009L214.945 32.276L217.223 37.002H217.359C217.268 35.846 217.155 34.6106 217.019 33.296C216.905 31.9586 216.849 30.6666 216.849 29.42V19.764H220.623V42H216.577L209.641 29.488L207.363 24.762H207.227C207.317 25.9406 207.419 27.176 207.533 28.468C207.669 29.76 207.737 31.0293 207.737 32.276V42H203.963Z" fill="#90907C"/>
<path d="M230.763 42V23.096H224.337V19.764H241.133V23.096H234.707V42H230.763Z" fill="#90907C"/>
<path d="M244.836 42V19.764H258.232V23.096H248.78V28.774H256.77V32.106H248.78V38.668H258.572V42H244.836Z" fill="#90907C"/>
</svg>
