<svg width="138" height="79" viewBox="0 0 138 79" fill="none" xmlns="http://www.w3.org/2000/svg">
<rect x="1" y="10" width="117" height="68" fill="#FAFAFA" stroke="#646464" stroke-width="2"/>
<rect x="1" y="1" width="117" height="9" fill="#FAFAFA" stroke="#646464" stroke-width="2"/>
<circle cx="6" cy="5" r="2" fill="#646464"/>
<circle cx="11" cy="5" r="2" fill="#646464"/>
<circle cx="16" cy="5" r="2" fill="#646464"/>
<path d="M137.707 44.7071C138.098 44.3166 138.098 43.6834 137.707 43.2929L131.343 36.9289C130.953 36.5384 130.319 36.5384 129.929 36.9289C129.538 37.3195 129.538 37.9526 129.929 38.3431L135.586 44L129.929 49.6569C129.538 50.0474 129.538 50.6805 129.929 51.0711C130.319 51.4616 130.953 51.4616 131.343 51.0711L137.707 44.7071ZM100 45H137V43H100V45Z" fill="#646464"/>
</svg>
